<svg width="458" height="59" viewBox="0 0 458 59" fill="none" xmlns="http://www.w3.org/2000/svg">
<path d="M269.038 34.6465H260.103V28.4697H269.038C270.356 28.4697 271.414 28.25 272.212 27.8105C273.026 27.3711 273.62 26.7689 273.994 26.0039C274.385 25.2227 274.58 24.3438 274.58 23.3672C274.58 22.3581 274.385 21.4222 273.994 20.5596C273.62 19.6807 273.026 18.9727 272.212 18.4355C271.414 17.8984 270.356 17.6299 269.038 17.6299H262.983V47H255.024V11.4531H269.038C271.87 11.4531 274.295 11.9658 276.313 12.9912C278.348 14.0166 279.902 15.4245 280.977 17.2148C282.067 18.9889 282.612 21.0234 282.612 23.3184C282.612 25.6133 282.067 27.6071 280.977 29.2998C279.902 30.9925 278.348 32.3109 276.313 33.2549C274.295 34.1826 271.87 34.6465 269.038 34.6465ZM294.697 26.7363V47H287.08V20.584H294.233L294.697 26.7363ZM302.583 20.3887L302.461 27.4932C302.135 27.4443 301.712 27.4036 301.191 27.3711C300.671 27.3223 300.223 27.2979 299.849 27.2979C298.872 27.2979 298.026 27.4199 297.31 27.6641C296.61 27.8919 296.024 28.2337 295.552 28.6895C295.096 29.1452 294.754 29.7148 294.526 30.3984C294.299 31.0658 294.185 31.8389 294.185 32.7178L292.744 32.0098C292.744 30.2682 292.915 28.6732 293.257 27.2246C293.599 25.776 294.095 24.5228 294.746 23.4648C295.397 22.3906 296.195 21.5605 297.139 20.9746C298.083 20.3887 299.157 20.0957 300.361 20.0957C300.752 20.0957 301.151 20.1201 301.558 20.1689C301.965 20.2178 302.306 20.291 302.583 20.3887ZM317.671 47.4883C315.571 47.4883 313.691 47.1546 312.031 46.4873C310.371 45.82 308.963 44.9004 307.808 43.7285C306.668 42.5404 305.798 41.1732 305.195 39.627C304.593 38.0807 304.292 36.4287 304.292 34.6709V33.7432C304.292 31.7738 304.569 29.959 305.122 28.2988C305.675 26.6387 306.481 25.1982 307.539 23.9775C308.613 22.7406 309.932 21.7884 311.494 21.1211C313.057 20.4375 314.839 20.0957 316.841 20.0957C318.713 20.0957 320.381 20.4049 321.846 21.0234C323.311 21.6257 324.548 22.4964 325.557 23.6357C326.566 24.7588 327.331 26.1178 327.852 27.7129C328.389 29.2917 328.657 31.0658 328.657 33.0352V36.1602H307.368V31.2529H321.187V30.667C321.187 29.7393 321.016 28.9255 320.674 28.2256C320.348 27.5257 319.86 26.9886 319.209 26.6143C318.574 26.2236 317.769 26.0283 316.792 26.0283C315.864 26.0283 315.091 26.2236 314.473 26.6143C313.854 27.0049 313.358 27.5583 312.983 28.2744C312.625 28.9743 312.365 29.7962 312.202 30.7402C312.039 31.668 311.958 32.6689 311.958 33.7432V34.6709C311.958 35.6963 312.096 36.6322 312.373 37.4785C312.65 38.3249 313.057 39.0492 313.594 39.6514C314.131 40.2536 314.782 40.7256 315.547 41.0674C316.312 41.4092 317.183 41.5801 318.159 41.5801C319.364 41.5801 320.511 41.3522 321.602 40.8965C322.692 40.4245 323.636 39.6921 324.434 38.6992L327.998 42.7764C327.461 43.5576 326.704 44.3145 325.728 45.0469C324.767 45.763 323.612 46.349 322.261 46.8047C320.91 47.2604 319.38 47.4883 317.671 47.4883ZM340.01 26.126V47H332.393V20.584H339.546L340.01 26.126ZM339.033 32.8643L337.104 32.9131C337.104 31.0576 337.324 29.3568 337.764 27.8105C338.219 26.248 338.879 24.889 339.741 23.7334C340.604 22.5778 341.67 21.6826 342.939 21.0479C344.225 20.4131 345.706 20.0957 347.383 20.0957C348.555 20.0957 349.621 20.2747 350.581 20.6328C351.541 20.9746 352.363 21.5199 353.047 22.2686C353.747 23.001 354.284 23.9613 354.658 25.1494C355.033 26.3213 355.22 27.7292 355.22 29.373V47H347.603V30.3008C347.603 29.1289 347.456 28.2419 347.163 27.6396C346.886 27.0212 346.479 26.598 345.942 26.3701C345.405 26.1423 344.762 26.0283 344.014 26.0283C343.2 26.0283 342.476 26.2074 341.841 26.5654C341.222 26.9072 340.701 27.3874 340.278 28.0059C339.855 28.6243 339.538 29.3486 339.326 30.1787C339.131 31.0088 339.033 31.904 339.033 32.8643ZM354.438 32.4736L352.021 32.6689C352.021 30.8786 352.233 29.2184 352.656 27.6885C353.079 26.1585 353.714 24.832 354.561 23.709C355.407 22.5697 356.457 21.6826 357.71 21.0479C358.979 20.4131 360.452 20.0957 362.129 20.0957C363.366 20.0957 364.489 20.2747 365.498 20.6328C366.523 20.9909 367.402 21.5687 368.135 22.3662C368.883 23.1637 369.461 24.2135 369.868 25.5156C370.275 26.8014 370.479 28.3802 370.479 30.252V47H362.812V30.252C362.812 29.0964 362.666 28.2174 362.373 27.6152C362.096 27.013 361.689 26.598 361.152 26.3701C360.632 26.1423 360.005 26.0283 359.272 26.0283C358.459 26.0283 357.751 26.1992 357.148 26.541C356.546 26.8665 356.042 27.3223 355.635 27.9082C355.228 28.4779 354.927 29.1533 354.731 29.9346C354.536 30.7158 354.438 31.5622 354.438 32.4736ZM383.613 20.584V47H375.972V20.584H383.613ZM375.508 13.748C375.508 12.6413 375.898 11.738 376.68 11.0381C377.461 10.3219 378.486 9.96387 379.756 9.96387C381.025 9.96387 382.051 10.3219 382.832 11.0381C383.63 11.738 384.028 12.6413 384.028 13.748C384.028 14.8385 383.63 15.7419 382.832 16.458C382.051 17.1579 381.025 17.5078 379.756 17.5078C378.486 17.5078 377.461 17.1579 376.68 16.458C375.898 15.7419 375.508 14.8385 375.508 13.748ZM404.609 40.6279V20.584H412.275V47H405.098L404.609 40.6279ZM405.415 35.2324L407.515 35.1836C407.515 36.9577 407.303 38.5934 406.88 40.0908C406.473 41.5882 405.854 42.8903 405.024 43.9971C404.211 45.1038 403.193 45.9665 401.973 46.585C400.768 47.1872 399.36 47.4883 397.749 47.4883C396.447 47.4883 395.251 47.3092 394.16 46.9512C393.086 46.5768 392.158 45.999 391.377 45.2178C390.596 44.4202 389.993 43.403 389.57 42.166C389.147 40.9128 388.936 39.4154 388.936 37.6738V20.584H396.553V37.7227C396.553 38.4062 396.634 38.9922 396.797 39.4805C396.976 39.9525 397.212 40.3431 397.505 40.6523C397.814 40.9616 398.188 41.1895 398.628 41.3359C399.084 41.4824 399.58 41.5557 400.117 41.5557C401.468 41.5557 402.526 41.279 403.291 40.7256C404.072 40.1559 404.618 39.3991 404.927 38.4551C405.252 37.4948 405.415 36.4206 405.415 35.2324ZM424.873 26.126V47H417.256V20.584H424.409L424.873 26.126ZM423.896 32.8643L421.968 32.9131C421.968 31.0576 422.188 29.3568 422.627 27.8105C423.083 26.248 423.742 24.889 424.604 23.7334C425.467 22.5778 426.533 21.6826 427.803 21.0479C429.089 20.4131 430.57 20.0957 432.246 20.0957C433.418 20.0957 434.484 20.2747 435.444 20.6328C436.405 20.9746 437.227 21.5199 437.91 22.2686C438.61 23.001 439.147 23.9613 439.521 25.1494C439.896 26.3213 440.083 27.7292 440.083 29.373V47H432.466V30.3008C432.466 29.1289 432.319 28.2419 432.026 27.6396C431.75 27.0212 431.343 26.598 430.806 26.3701C430.269 26.1423 429.626 26.0283 428.877 26.0283C428.063 26.0283 427.339 26.2074 426.704 26.5654C426.086 26.9072 425.565 27.3874 425.142 28.0059C424.718 28.6243 424.401 29.3486 424.189 30.1787C423.994 31.0088 423.896 31.904 423.896 32.8643ZM439.302 32.4736L436.885 32.6689C436.885 30.8786 437.096 29.2184 437.52 27.6885C437.943 26.1585 438.577 24.832 439.424 23.709C440.27 22.5697 441.32 21.6826 442.573 21.0479C443.843 20.4131 445.316 20.0957 446.992 20.0957C448.229 20.0957 449.352 20.2747 450.361 20.6328C451.387 20.9909 452.266 21.5687 452.998 22.3662C453.747 23.1637 454.325 24.2135 454.731 25.5156C455.138 26.8014 455.342 28.3802 455.342 30.252V47H447.676V30.252C447.676 29.0964 447.529 28.2174 447.236 27.6152C446.96 27.013 446.553 26.598 446.016 26.3701C445.495 26.1423 444.868 26.0283 444.136 26.0283C443.322 26.0283 442.614 26.1992 442.012 26.541C441.41 26.8665 440.905 27.3223 440.498 27.9082C440.091 28.4779 439.79 29.1533 439.595 29.9346C439.399 30.7158 439.302 31.5622 439.302 32.4736Z" fill="url(#paint0_linear_54_247)"/>
<path d="M17.2637 35.9648V11.4531H25.1738V35.9648C25.1738 38.3411 24.6367 40.3919 23.5625 42.1172C22.5046 43.8262 21.0641 45.1527 19.2412 46.0967C17.4346 47.0244 15.3919 47.4883 13.1133 47.4883C10.7695 47.4883 8.6862 47.0977 6.86328 46.3164C5.04036 45.5189 3.60807 44.3063 2.56641 42.6787C1.54102 41.0348 1.02832 38.9434 1.02832 36.4043H8.9873C8.9873 37.6576 9.14193 38.6504 9.45117 39.3828C9.77669 40.099 10.2487 40.6035 10.8672 40.8965C11.4857 41.1895 12.2344 41.3359 13.1133 41.3359C13.9596 41.3359 14.6921 41.1325 15.3105 40.7256C15.929 40.3024 16.4092 39.6921 16.751 38.8945C17.0928 38.0807 17.2637 37.1042 17.2637 35.9648ZM29.5195 34.0605V33.5479C29.5195 31.611 29.7962 29.8288 30.3496 28.2012C30.903 26.5573 31.7168 25.1331 32.791 23.9287C33.8652 22.7243 35.1836 21.7884 36.7461 21.1211C38.3086 20.4375 40.099 20.0957 42.1172 20.0957C44.168 20.0957 45.9746 20.4375 47.5371 21.1211C49.1159 21.7884 50.4424 22.7243 51.5166 23.9287C52.5908 25.1331 53.4046 26.5573 53.958 28.2012C54.5114 29.8288 54.7881 31.611 54.7881 33.5479V34.0605C54.7881 35.9811 54.5114 37.7633 53.958 39.4072C53.4046 41.0348 52.5908 42.459 51.5166 43.6797C50.4424 44.8841 49.124 45.82 47.5615 46.4873C45.999 47.1546 44.2005 47.4883 42.166 47.4883C40.1478 47.4883 38.3493 47.1546 36.7705 46.4873C35.1917 45.82 33.8652 44.8841 32.791 43.6797C31.7168 42.459 30.903 41.0348 30.3496 39.4072C29.7962 37.7633 29.5195 35.9811 29.5195 34.0605ZM37.1611 33.5479V34.0605C37.1611 35.1022 37.2425 36.0788 37.4053 36.9902C37.5843 37.9017 37.8691 38.6992 38.2598 39.3828C38.6504 40.0664 39.1631 40.6035 39.7979 40.9941C40.4489 41.3685 41.2383 41.5557 42.166 41.5557C43.0938 41.5557 43.875 41.3685 44.5098 40.9941C45.1445 40.6035 45.6572 40.0664 46.0479 39.3828C46.4385 38.6992 46.7152 37.9017 46.8779 36.9902C47.057 36.0788 47.1465 35.1022 47.1465 34.0605V33.5479C47.1465 32.5225 47.057 31.5622 46.8779 30.667C46.7152 29.7555 46.4385 28.9499 46.0479 28.25C45.6572 27.5501 45.1364 27.0049 44.4854 26.6143C43.8506 26.2236 43.0612 26.0283 42.1172 26.0283C41.2057 26.0283 40.4326 26.2236 39.7979 26.6143C39.1631 27.0049 38.6504 27.5501 38.2598 28.25C37.8691 28.9499 37.5843 29.7555 37.4053 30.667C37.2425 31.5622 37.1611 32.5225 37.1611 33.5479ZM58.8164 9.5H66.4336V40.7256L65.6523 47H58.8164V9.5ZM82.9131 33.499V34.0117C82.9131 36.0137 82.7015 37.8366 82.2783 39.4805C81.8714 41.1243 81.2448 42.5485 80.3984 43.7529C79.5521 44.9411 78.486 45.8607 77.2002 46.5117C75.9144 47.1628 74.4007 47.4883 72.6592 47.4883C71.0479 47.4883 69.6644 47.1546 68.5088 46.4873C67.3532 45.8037 66.3848 44.8597 65.6035 43.6553C64.8223 42.4508 64.1875 41.043 63.6992 39.4316C63.2272 37.8203 62.861 36.0869 62.6006 34.2314V33.3525C62.861 31.4971 63.2272 29.7637 63.6992 28.1523C64.1875 26.541 64.8223 25.1331 65.6035 23.9287C66.3848 22.7243 67.3451 21.7884 68.4844 21.1211C69.64 20.4375 71.0153 20.0957 72.6104 20.0957C74.3682 20.0957 75.89 20.4294 77.1758 21.0967C78.4779 21.764 79.5521 22.6999 80.3984 23.9043C81.2448 25.0924 81.8714 26.5085 82.2783 28.1523C82.7015 29.7799 82.9131 31.5622 82.9131 33.499ZM75.2959 34.0117V33.499C75.2959 32.4899 75.2227 31.5378 75.0762 30.6426C74.946 29.7474 74.71 28.958 74.3682 28.2744C74.0426 27.5745 73.5788 27.0293 72.9766 26.6387C72.3906 26.2318 71.6338 26.0283 70.7061 26.0283C69.7946 26.0283 69.0215 26.1829 68.3867 26.4922C67.752 26.8014 67.2393 27.2409 66.8486 27.8105C66.458 28.3639 66.1732 29.0394 65.9941 29.8369C65.8151 30.6344 65.7174 31.5215 65.7012 32.498V35.0859C65.7174 36.388 65.8883 37.5273 66.2139 38.5039C66.5394 39.4805 67.0684 40.2373 67.8008 40.7744C68.5332 41.2952 69.5179 41.5557 70.7549 41.5557C71.6989 41.5557 72.4639 41.3766 73.0498 41.0186C73.652 40.6442 74.1077 40.1234 74.417 39.4561C74.7425 38.7887 74.9704 37.9912 75.1006 37.0635C75.2308 36.1357 75.2959 35.1185 75.2959 34.0117ZM102.469 40.6279V20.584H110.135V47H102.957L102.469 40.6279ZM103.274 35.2324L105.374 35.1836C105.374 36.9577 105.162 38.5934 104.739 40.0908C104.332 41.5882 103.714 42.8903 102.884 43.9971C102.07 45.1038 101.053 45.9665 99.832 46.585C98.6276 47.1872 97.2197 47.4883 95.6084 47.4883C94.3063 47.4883 93.11 47.3092 92.0195 46.9512C90.9453 46.5768 90.0176 45.999 89.2363 45.2178C88.4551 44.4202 87.8529 43.403 87.4297 42.166C87.0065 40.9128 86.7949 39.4154 86.7949 37.6738V20.584H94.4121V37.7227C94.4121 38.4062 94.4935 38.9922 94.6562 39.4805C94.8353 39.9525 95.0713 40.3431 95.3643 40.6523C95.6735 40.9616 96.0479 41.1895 96.4873 41.3359C96.943 41.4824 97.4395 41.5557 97.9766 41.5557C99.3275 41.5557 100.385 41.279 101.15 40.7256C101.932 40.1559 102.477 39.3991 102.786 38.4551C103.112 37.4948 103.274 36.4206 103.274 35.2324ZM129.153 39.6514C129.153 39.1631 128.999 38.7318 128.689 38.3574C128.396 37.9831 127.859 37.6413 127.078 37.332C126.313 37.0228 125.231 36.7135 123.831 36.4043C122.513 36.1276 121.284 35.7695 120.145 35.3301C119.005 34.8743 118.012 34.3291 117.166 33.6943C116.32 33.0433 115.66 32.2783 115.188 31.3994C114.716 30.5042 114.48 29.487 114.48 28.3477C114.48 27.2409 114.716 26.1911 115.188 25.1982C115.677 24.2054 116.377 23.3265 117.288 22.5615C118.216 21.7965 119.339 21.1943 120.657 20.7549C121.992 20.3154 123.506 20.0957 125.198 20.0957C127.526 20.0957 129.536 20.4619 131.229 21.1943C132.921 21.9105 134.223 22.9196 135.135 24.2217C136.046 25.5075 136.502 26.9805 136.502 28.6406H128.885C128.885 27.957 128.755 27.363 128.494 26.8584C128.234 26.3538 127.835 25.9632 127.298 25.6865C126.761 25.3936 126.053 25.2471 125.174 25.2471C124.49 25.2471 123.888 25.3691 123.367 25.6133C122.863 25.8411 122.464 26.1585 122.171 26.5654C121.894 26.9723 121.756 27.4443 121.756 27.9814C121.756 28.3558 121.837 28.6976 122 29.0068C122.179 29.2998 122.448 29.5765 122.806 29.8369C123.18 30.0811 123.66 30.3008 124.246 30.4961C124.848 30.6914 125.581 30.8786 126.443 31.0576C128.283 31.3994 129.959 31.8796 131.473 32.498C133.003 33.1165 134.223 33.971 135.135 35.0615C136.062 36.152 136.526 37.5924 136.526 39.3828C136.526 40.5547 136.258 41.6289 135.721 42.6055C135.2 43.582 134.443 44.4365 133.45 45.1689C132.457 45.9014 131.269 46.471 129.886 46.8779C128.502 47.2848 126.94 47.4883 125.198 47.4883C122.708 47.4883 120.6 47.0407 118.875 46.1455C117.15 45.2503 115.848 44.1273 114.969 42.7764C114.106 41.4092 113.675 40.0094 113.675 38.5771H120.828C120.861 39.4561 121.08 40.1722 121.487 40.7256C121.91 41.279 122.456 41.6859 123.123 41.9463C123.79 42.1904 124.539 42.3125 125.369 42.3125C126.199 42.3125 126.891 42.1986 127.444 41.9707C127.998 41.7428 128.421 41.4336 128.714 41.043C129.007 40.6361 129.153 40.1722 129.153 39.6514ZM148.221 9.5V47H140.604V9.5H148.221ZM147.22 32.8643L145.315 32.9131C145.315 31.0576 145.543 29.3568 145.999 27.8105C146.471 26.248 147.138 24.889 148.001 23.7334C148.864 22.5778 149.897 21.6826 151.102 21.0479C152.322 20.4131 153.665 20.0957 155.13 20.0957C156.432 20.0957 157.62 20.2829 158.694 20.6572C159.769 21.0316 160.696 21.6257 161.478 22.4395C162.259 23.2533 162.861 24.3193 163.284 25.6377C163.707 26.9561 163.919 28.5592 163.919 30.4473V47H156.253V30.3984C156.253 29.2754 156.09 28.3965 155.765 27.7617C155.455 27.127 155 26.6794 154.397 26.4189C153.812 26.1585 153.095 26.0283 152.249 26.0283C151.256 26.0283 150.434 26.2074 149.783 26.5654C149.132 26.9072 148.619 27.3874 148.245 28.0059C147.871 28.6243 147.602 29.3486 147.439 30.1787C147.293 31.0088 147.22 31.904 147.22 32.8643ZM176.565 9.47559V47H168.924V9.47559H176.565ZM193.338 20.584L181.839 33.8652L175.76 39.9688L172.708 34.8174L177.64 28.4453L184.158 20.584H193.338ZM185.281 47L177.835 34.8662L183.304 30.5938L194.021 47H185.281ZM203.909 43.9482L210.818 20.584H219.021L208.401 50.9551C208.174 51.6224 207.864 52.3385 207.474 53.1035C207.099 53.8685 206.587 54.6009 205.936 55.3008C205.301 56.0007 204.487 56.5703 203.494 57.0098C202.501 57.4492 201.281 57.6689 199.832 57.6689C199.1 57.6689 198.53 57.6283 198.123 57.5469C197.732 57.4818 197.212 57.3678 196.561 57.2051L196.536 51.6631C196.748 51.6631 196.935 51.6631 197.098 51.6631C197.277 51.6794 197.456 51.6875 197.635 51.6875C198.546 51.6875 199.279 51.5898 199.832 51.3945C200.402 51.1992 200.841 50.9062 201.15 50.5156C201.476 50.1413 201.736 49.6611 201.932 49.0752L203.909 43.9482ZM201.59 20.584L207.059 39.3828L207.986 47.4639L202.835 47.7324L193.387 20.584H201.59Z" fill="#030088"/>
<defs>
<linearGradient id="paint0_linear_54_247" x1="278.976" y1="-42.4621" x2="465.976" y2="137.028" gradientUnits="userSpaceOnUse">
<stop stop-color="#FF3CD4"/>
<stop offset="1" stop-color="#6E3CFF"/>
</linearGradient>
</defs>
</svg>
