<svg width="17" height="17" viewBox="0 0 17 17" fill="none" xmlns="http://www.w3.org/2000/svg">
<path d="M1.49414 2.67649H15.5059C16.3297 2.67649 17 3.34677 17 4.17064V12.8294C17 13.6533 16.3297 14.3236 15.5059 14.3236H1.49414C0.670271 14.3236 0 13.6533 0 12.8294V4.17064C0 3.34677 0.670271 2.67649 1.49414 2.67649ZM1.68914 3.67259L1.88856 3.83864L7.90719 8.85035C8.25071 9.13636 8.74936 9.13636 9.09281 8.85035L15.1114 3.83864L15.3109 3.67259H1.68914ZM16.0039 4.3917L11.1001 8.47512L16.0039 11.7388V4.3917ZM1.49414 13.3275H15.5059C15.7465 13.3275 15.9478 13.1559 15.9939 12.9287L10.3014 9.14015L9.73018 9.61582C9.37377 9.91259 8.93685 10.061 8.49997 10.061C8.06308 10.061 7.62619 9.91259 7.26976 9.61582L6.69853 9.14015L1.00605 12.9286C1.05221 13.1559 1.25348 13.3275 1.49414 13.3275ZM0.996094 11.7388L5.89993 8.47516L0.996094 4.3917V11.7388Z" fill="#000842"/>
</svg>
